<?xml version="1.0" encoding="utf-8"?>
<!-- Generator: Adobe Illustrator 25.0.0, SVG Export Plug-In . SVG Version: 6.00 Build 0)  -->
<svg version="1.1" id="katman_1" xmlns="http://www.w3.org/2000/svg" xmlns:xlink="http://www.w3.org/1999/xlink" x="0px" y="0px"
	 viewBox="0 0 560 400" style="enable-background:new 0 0 560 400;" xml:space="preserve">
<g transform="matrix(.34642 0 0 .34642 100 155.883)">
	<path fill="#fff" d="M-100-40.1c16.9-0.3,37.5,6.1,51.4,23.3c6.3,6.1,17.9,35.3,17.9,35.3l69.3,183.8c9,22.1,35.7,23.7,43.6,1.7l21.5-57.9
		l36.7,96.6c-17.9,32.5-35.2,40.6-55.6,48.1c-23.8,7.5-52.4,5-72.9-7.8c-6.8-4.3-24.6-15.9-36.7-45.3L-97.9,33.9v185.5l27.3-78.3
		l35,97.8c-5.1,22.5-21.3,41.2-40.3,50c-20.7,9.7-45.3,6.3-64-5.5c-18.6-13.7-23.8-30-24.6-59l0.3-200.7
		c2.1-33.4,23.4-51.6,42.3-59.8C-113.5-39-109.9-39.8-100-40.1z M218.9,294.5c-17,0.3-37.5-6.1-51.4-23.2
		c-6.3-6.1-17.8-35.3-17.8-35.3L80.4,52.2c-9-22.1-35.7-23.7-43.6-1.7l-21.5,57.9l-36.7-96.6c17.9-32.5,35.2-40.6,55.7-47.9
		c23.8-7.5,52.4-5,72.9,7.8c6.8,4.5,24.6,16.1,36.7,45.3l72.9,203.7V35.1l-27.3,78.3l-35-97.8c5.1-22.5,21.3-41.2,40.3-50
		c20.7-9.7,45.3-6.3,64,5.5c18.6,13.8,23.8,30.2,24.6,59l-0.4,200.7c-2.1,33.4-23.4,51.6-42.3,59.8
		C232.3,293.6,228.6,294.4,218.9,294.5z"/>
	<path fill="#fff" d="M1139.5,85c-5.1-28.7-30.5-57.3-68.3-57.3c-42,0-75.8,29.1-75.8,98c0,53.6,23.6,100.3,74.9,100.3
		c32.4,0,58.2-19.9,67.4-52.3l65.2,28.7c-18,49.9-70.3,93.4-143.3,89.7c-89.7-4.2-140.1-67.4-140.1-164.1
		c0-111.4,66.5-161.7,143.8-164.6c75.8-2.8,125.7,40.7,140.5,91C1202.8,54.9,1140.4,84.1,1139.5,85L1139.5,85z M639,289.2h-79.5
		l-22.6-70.2H434.7L412,289.4h-79L440.7-34.3h89.7L639,289.2z M785.8,289.4H655.5V-34.3h132.7c68.3,0,106.3,24.5,106.3,81.4
		c0,32.8-13.8,59.6-39.2,71.2c29.1,9.7,48.1,34.2,48.1,74.9C903.3,254.7,862.2,289.4,785.8,289.4z M785.4,154.3h-53.6v69.4h54.5
		c25,0,40.2-11.1,40.7-34.2C828,164.9,810.8,154.3,785.4,154.3L785.4,154.3z M487.9,68.3h-4.6l-28.2,85.1h61L487.9,68.3z
		 M786.4,28.5h-54.5v59.6H785c21.2,0,33.7-10.7,33.7-31.5C818.7,37.4,807.2,28.5,786.4,28.5z"/>
</g>
</svg>
