<svg xmlns="http://www.w3.org/2000/svg" width="696" height="452.818" viewBox="0 0 696 452.818" id="dreamworks-animation"><g><path fill="#fff" d="M257.775,185.027c-2.053.965-4.649,1.167-8.115,1.167h-1.513V170.341c0-2.747.32-3.466,4.86-3.466,4.229,0,10.83,2.714,10.83,9.331,0,3.376-1.622,6.612-6.062,8.821Zm126.979-4.42-2.4-.687c-7.1-1.926-11.245-4-11.245-7.438,0-3.311,3.921-6,9.5-6,8.619,0,12.452,4.891,14.85,9.442l4.8-.483c-1.2-4.684-1.96-8.057-2.4-10.749-1.424-.278-3.169-.552-5.684-.965a60.259,60.259,0,0,0-10.036-.819c-17.152,0-26.1,6.329-26.1,14.122,0,7.364,10.041,11.02,19.11,13.57l1.638.487c6.767,1.786,10.911,4.206,10.911,8.264,0,4.478-4.359,6.819-10.034,6.819-10.7,0-17.152-7.644-19.442-11.639l-4.807.893c1.172,4.118,2.434,7.528,3.3,10.463-3.61-.429-6.505-1.5-11.6-5.846-6.767-5.784-13.867-12.131-20.532-18.674,4.515-3.376,9.893-6.89,15.693-10.466,5.591-3.517,8.925-4.376,15.057-4.791v-2.174H326.52v2.174l4.083.29c2.907.2,1.724,2.076.209,3.327-6.229,5.236-12.79,10.333-20.643,15.985V174.965c0-7.447.872-8.438,7.96-8.853v-2.174h-33.54v2.174c7.528.418,8.382,1.408,8.382,8.853V197.7c0,4.385-.313,6.851-1.986,7.807-2.5,1.16-4.285.418-6.139-.956-1.728-1.383-4.111-4.239-7.8-7.886-3.137-3.169-7.139-7.918-8.654-9.853,8-2,13.964-5.577,13.964-11.639,0-4.072-3.243-7.169-7.579-8.886-4.218-1.733-9.853-2.35-18.291-2.35H222.068l.636,2.174c7.25.418,7.489,1.408,7.489,8.853V197.7c0,7.438-.87,8.429-8.554,8.844v2.185h34.846v-2.185c-7.47-.415-8.338-1.406-8.338-8.846v-8.264h1.4a5.32,5.32,0,0,1,4.543,2.482c2.714,3.854,5.744,8.125,8.992,11.085,4.318,4,7.835,6.568,22.9,6.273a55.1,55.1,0,0,0,6.422-.545h26.258v-2.185c-7.626-.415-8.7-1.406-8.5-8.846v-11.02h.223c7.842,7.514,19.07,17.641,23.158,22.052h24.736V207.3q2.789.715,5.61,1.292a62.311,62.311,0,0,0,11.79,1.174c16.929,0,27.747-6.2,27.747-14.686,0-8.057-8.626-11.639-18.681-14.47" transform="translate(292.565 215.042)"></path><path fill="#fff" d="M487.121,214.329c-10.811,0-18.314-9.085-18.314-21.56,0-12.055,7.064-18.129,15.56-18.129,9.489,0,17.442,7.656,17.442,21.5,0,12.477-5.19,18.184-14.686,18.184ZM226.584,200.314l6.561-13.335h.325l6.658,13.335Zm-92.538-6.139c-2.018.977-4.575,1.183-7.983,1.183h-1.489v-16.05c0-2.8.322-3.517,4.791-3.517,4.144,0,10.63,2.738,10.63,9.447C139.995,188.656,138.408,191.943,134.046,194.175ZM50.055,213.106c-7.315,0-10.665-2.095-10.665-10.41V166.815c0-2.334.148-4.482.912-4.668a21.984,21.984,0,0,1,6.559-.661c12.948,0,29.564,5.61,29.564,25.7,0,16.542-13.266,25.921-26.369,25.921Zm472.279-19.17c0-13.644-15.563-22.868-35.758-22.868-15.883,0-26.515,4.663-32.473,10.811,3.649-7.062,6.071-11.554,6.4-12.1,5.139-8.315,6.505-9.1,14.966-9.86V156.73H439.345v3.185l5.742.38c6.512.383,6.951,1.919,4.988,7.315-2.118,5.577-7.712,18.913-12.992,29.974l-.3-.515L413.8,156.795H403.223l-19.8,40.275-.306.513-14.354-31.768c-1.81-3.881-1.355-5.048,4.234-5.519l4.835-.38V156.73H330.674v3.185c6.948.566,9.67,1.457,13.751,9.3l1.854,3.6h-22.52l-16.843,27.643-19.27-27.641H261.767v2.209c8.693.5,9.582,1.763,8.811,10.563L269.37,199.7a79.726,79.726,0,0,1-1.77,12.21c-.181.742-.306,1.638-.96,1.786-.752.116-2.424-2.5-3.854-5.062q-6.637-11.8-13.122-23.678l-7.2-13.189-7.306.974L214,208.837q-.344.586-.71,1.16a15.014,15.014,0,0,1-2.459,2.979c-2.366,1.677-8.48,2.1-12.783,2.1-3.334,0-5.807-.074-7.526-.626-1.928-.631-2.151-2.891-2.151-6.512V196.551h5.375c9.243,0,9.565.422,10.64,6.561h4.733V186.639h-4.733c-1.074,5.3-1.4,5.723-10.64,5.723h-5.375V178.888c0-2.45.223-2.946,4.3-2.946H194.5c5.7,0,9.25.406,10.964,1.6,1.719,1.125,2.9,3.582,3.976,7.006l4.726-.213c-.529-5.236-1.074-10.333-1.174-11.517H162.042v2.209c7.2.422,8.057,1.415,8.057,8.962v23.033c0,6.645-.677,7.818-6.487,8.289a15.545,15.545,0,0,1-2.979-1.861c-1.7-1.392-4.046-3.765-7.661-7.47-3.076-3.213-7.016-8.027-8.505-9.985,7.867-2.028,13.718-5.652,13.718-11.8,0-4.12-3.195-7.255-7.447-9-4.144-1.754-9.67-2.373-17.968-2.373H100.232a30.955,30.955,0,0,0-8.869-7.679c-10.217-6.081-25.761-8.315-44.5-8.315H2.349v3.64c9.911.564,11.129,1.216,11.129,11.31V202.6c0,10.094-1.218,11.261-12.345,11.816v3.146H40.457c35.2,0,64.011-10,64.011-33.278a17.828,17.828,0,0,0-2.615-9.067c5.039.557,5.71,2.118,5.71,8.77v23.033c0,7.547-.844,8.547-8.4,8.96V218.2h33.6v-2.218c-7.331-.413-8.19-1.415-8.19-8.96v-8.373h1.39a5.233,5.233,0,0,1,4.468,2.506c2.654,3.916,5.633,8.241,8.828,11.254,4.246,4.044,7.76,6.139,22.859,6.345a17.326,17.326,0,0,0,4.327-.554h61.728v-2.218l-3.069-.206c-4.865-.348-4.972-1.554-3.492-4.559l3.178-6.693h17.354l3.809,7.115c1.371,2.515,1.165,3.714-2.749,4.06l-3.176.283V218.2h46.739v-2.218c-7.167-.348-9.582-1.48-10.029-4.069-.436-2.162-.557-5.519-.223-11.51l.777-15.5h.223l20.147,32.529H303.6l21.254-34.979h.441l.329,24.569c.116,7.763-.216,8.475-8.473,8.962V218.2h34.466v-2.218c-7.934-.487-8.155-1.2-8.48-8.96l-1.107-23.388c-.281-6.331.016-7.779,5.5-8.366l22.439,43.593h11.639l20.254-38.389h.3l22.221,38.389H436.03q6-12.943,12.375-25.706a16.149,16.149,0,0,0-.123,1.963c0,12.672,14.454,22.806,36.749,22.806,21.186,0,37.3-9.234,37.3-23.984M.307,240.053H201.756v-2.54H.307Z" transform="translate(.405 206.884)"></path><path fill="#fff" d="M1.431,193.774H201.446v-1.1H1.431Zm-.719,1.431v-.71h0v.71H0v-3.963H202.88v3.963H.712m492.415-.745H694.578v-2.54H493.127v2.54Z" transform="translate(0 252.442)"></path><path fill="#fff" d="M377.6,198.26H577.635v-1.109H377.6v1.109Zm-.71,1.431v-.712h0v.712h-.719v-3.974H579.066v3.974H376.894m-280.747-1.5H100.9l-2.334-4.724h-.116Zm4.7,5.359,1.118-.088c1.373-.125,1.448-.371.967-1.264l-1.341-2.524H95.518L94.4,202.049c-.48,1.067-.48,1.313,1.225,1.438l1.074.067v.974H88.055v-.974c1.893-.167,2.448-.264,3.673-2.35l7.422-12.79,2.566-.348,2.522,4.682q2.276,4.2,4.6,8.382c1.192,2.157,1.863,2.283,3.675,2.422v.977H100.85v-.974m34.71,1.141h-3.185l-13.732-11.681h-.074v4.556a26.124,26.124,0,0,0,.3,4.726c.183.87,1.183,1.19,3.633,1.257v.974h-9.243v-.974c1.638-.042,2.6-.387,2.789-1.257a26.1,26.1,0,0,0,.3-4.726v-4.556c0-1.828-.072-2.151-.817-2.847a4.627,4.627,0,0,0-2.821-.77v-.958h8.2l12.359,10.268h.074V195.4a27,27,0,0,0-.29-4.724c-.188-.877-1.19-1.193-3.64-1.276v-.958h9.466v.958c-1.854.058-2.821.4-3.011,1.276a26.951,26.951,0,0,0-.3,4.724v9.3m14.038-4.127c0,2.663.29,2.844,2.854,2.986v.974H140.427v-.974c2.564-.139,2.861-.323,2.861-2.986V192.4c0-2.673-.3-2.844-2.861-3v-.958h12.029v.958c-2.566.16-2.854.332-2.854,3v8.166m35.218-12.129v.958c-2.812.183-2.963.283-2.854,2.879l.371,8.292c.109,2.747.183,2.819,2.854,2.986v.974H173.577v-.974c2.779-.167,2.9-.239,2.854-2.986l-.107-8.723h-.148l-7.164,12.4h-2l-6.793-11.526h-.074l-.264,5.5a17.865,17.865,0,0,0,.084,4.079c.139.909.958,1.141,3.376,1.257v.974h-9.176v-.974c1.786-.093,2.492-.348,2.714-1.257a31.231,31.231,0,0,0,.6-4.327l.4-5.007c.255-3.118-.033-3.383-2.97-3.566v-.958h8.719l6.5,9.8,5.677-9.8h9.016m9.282,9.753h4.749l-2.332-4.724H196.4l-2.3,4.724Zm4.717,5.359,1.109-.088c1.373-.125,1.448-.371.967-1.264l-1.341-2.524h-6.09l-1.109,2.373c-.487,1.067-.487,1.313,1.225,1.438l1.076.067v.974H186.01v-.974c1.886-.167,2.448-.264,3.673-2.35l7.422-12.79,2.566-.348,2.522,4.682q2.277,4.2,4.6,8.382c1.19,2.158,1.854,2.283,3.682,2.422v.977H198.817v-.974m22.53-2.986c0,2.663.3,2.844,3.417,2.986v.974h-13v-.974c2.979-.139,3.269-.323,3.269-2.986V189.729h-.629c-2.492,0-3.492.3-4.088.735a5.341,5.341,0,0,0-1.373,2.4h-1.554c.148-2.074.371-3.777.445-5.044h1.151c.557.571.928.619,1.93.619h14.816a2.1,2.1,0,0,0,1.745-.619h1.141c.042,1.044.232,3.144.415,4.979l-1.638.065a5.2,5.2,0,0,0-1.522-2.545c-.629-.441-1.856-.589-3.633-.589h-.893v10.839m18.481,0c0,2.663.3,2.844,2.863,2.986v.974H230.664v-.974c2.564-.139,2.863-.323,2.863-2.986V192.4c0-2.673-.3-2.844-2.863-3v-.958h12.029v.958c-2.566.16-2.863.332-2.863,3v8.166m12.1-4.7c0,4.478,2.524,7.733,6.167,7.733,3.192,0,4.939-2.051,4.939-6.526,0-4.974-2.684-7.721-5.87-7.721-2.861,0-5.236,2.181-5.236,6.512Zm18,.418c0,5.29-5.417,8.607-12.542,8.607-7.5,0-12.359-3.642-12.359-8.19,0-4.007,4-8.64,12.874-8.64,6.8,0,12.027,3.318,12.027,8.224m24.425,8.405h-3.195l-13.734-11.681h-.074v4.556a27.068,27.068,0,0,0,.3,4.726c.19.87,1.193,1.19,3.642,1.257v.974h-9.252v-.974c1.64-.042,2.605-.387,2.789-1.257a26.018,26.018,0,0,0,.3-4.726v-4.556c0-1.828-.072-2.151-.819-2.847a4.6,4.6,0,0,0-2.821-.77v-.958H279.7l12.361,10.268h.07V195.4a25.886,25.886,0,0,0-.295-4.724c-.181-.877-1.19-1.193-3.633-1.276v-.958h9.456v.958c-1.851.058-2.819.4-3,1.276a26.1,26.1,0,0,0-.295,4.724v9.3m13.806-5.269a7.787,7.787,0,0,0,6.6,4.176c1.935,0,3.424-.835,3.424-2.448,0-1.448-1.45-2.276-3.724-2.963l-.552-.181c-3.037-.935-6.489-2.218-6.489-4.863,0-2.8,3.039-5.083,8.872-5.083a19.063,19.063,0,0,1,3.408.3c.858.148,1.448.246,1.935.348.148.967.4,2.176.812,3.854l-1.631.181a5.3,5.3,0,0,0-5.046-3.392c-1.9,0-3.225.961-3.225,2.153,0,1.239,1.445,1.96,3.821,2.673l.812.248c3.424,1.044,6.345,2.3,6.345,5.2,0,3.044-3.666,5.266-9.424,5.266a20.332,20.332,0,0,1-4-.413c-1.118-.255-1.9-.448-2.341-.6-.3-1.132-.784-2.466-1.234-4.13l1.638-.32m26.128,1.141c0,2.663.3,2.844,2.928,2.986v.974H325.652v-.974c2.415-.139,2.705-.323,2.705-2.986V192.4c0-2.673-.29-2.844-2.9-3v-.958h11.581v.958c-2.45.16-2.747.332-2.747,3v3.865q3.669-2.74,7.122-5.751c.534-.448.928-.935-.074-1.009l-1.406-.109v-.958h9.955v.958a9.07,9.07,0,0,0-5.2,1.54q-2.8,1.761-5.429,3.763,3.436,3.475,7.1,6.712c2,1.768,2.666,2.025,4.195,2.141v.974h-8.545c-1.408-1.587-4.935-5.227-7.637-7.914H334.3v3.953" transform="translate(116.233 247.923)"></path><path fill="#fff" d="M328.87,268.093c-1.109-3.26-4.188-3.93-6.6-3.93-3.939,0-7.2,2.6-7.2,6.825,0,3.837,2.441,7.419,7.57,7.419.923,0,1.513-.19,1.513-1.355v-2.376c0-1.654-.139-1.835-4.046-2.028v-1.116h12.4v1.116c-1.9.216-2.044.3-2.044,2.028v1.779a7.883,7.883,0,0,0,.223,2.25,46.578,46.578,0,0,1-8.38.991c-8.886,0-14.152-3.183-14.152-8.241,0-5.665,6.751-8.589,14.662-8.589a45.459,45.459,0,0,1,7.092.647c.107.844.295,2.127.594,4.5l-1.633.077M156.417,131.15a53.267,53.267,0,0,1-3.874,5.007c-1.842,2.053-2.413,3.12-1.114,3.874s2.431,1.661,5.227,3.5c-.761,4.454-3.921,11.28-5.99,15.317s-4.5,8.315-6.528,10.359-6.742,6.088-9.7,9.085c-2.993,2.953-6.45,5.143-8.5,5.475-3.724.629-4.865-2.19-5.378-1.494-2.292,3.16-1.076,6.41,3.185,6.965,1.422.19,2.283,1.661,4.9,2.779,2.615,1.1,6.561.174,8.779-.916,2.211-1.141,7.083-4.053,10.633-5.867s7.18-1.687,11.275-2.042c3.417-.306,3.775-6.074,2.54-8.9-1.8-4.262-.394-7.412,1.745-12.486,2.144-5.03,7.7-10.556,7.7-10.556s1.48-.754,3.988,1.032c2.39,1.728,2.877-1.032,5.962-4.707,2.5-2.977,5.181-6.2,3.608-7.628C183,138.219,183.5,137.5,183.5,137.5a27.625,27.625,0,0,1,3.765-3.914l-30.851-2.436" transform="translate(157.634 173.119)"></path><path fill="#fff" d="M266.265,234.49s23.539-17.5,32.7-66.8c5.529-29.812,3.185-58.659-10.027-87.327C269.5,38.161,222.649,8.519,177.815,3.7c74.792-16.985,142.179,26.87,167.876,81.9,25,53.6,22.875,109.683-15.825,162.062-8.011,10.811-53.961,63.16-135.537,60.413-5.758,1.025-20-1.8-24.4-3.475,0,0-7.38-2.837-16.333-6.735-9.083-3.953-30.439-15.637-42.888-27,10.433,6.2,29.146,12.964,46.878,14.542,11.166-1.362,69.758-11.656,108.676-50.922" transform="translate(146.139)"></path><path fill="#fff" d="M213.436,107.813c.661-1.67-4.253.622-5.155,1.076-2.912,1.473-4.849-.944-4.373-2.26.571-1.6.181-2.663-1-2.489-.977.146-1.183-1.151-.638-1.9a1.744,1.744,0,0,1-1.647-1.26c1.415-.545.116-2.051-.469-2.274s-1.856-.448-1.979-1.489c-.1-1.032.944-2.35,1.979-3.046,1.058-.675,1.48-1.893.3-4.018-.974-1.772-1.494-4.965-.568-6.132-2.09.241-3.137,2.747-3.137,2.747a7.384,7.384,0,0,1-.114-6.3,17.685,17.685,0,0,0-1.863,2.747c1.515-13.294,17.143-18.862,21.339-19.771,7.726-1.7,19.836-2.06,17.978,4,0,0,2.448-4.791-2.093-6.055,2.557-.125,4.633,2.754,3.591,4.589,1.292-.817,3.605-1.373,4.417-.241-1.283.109-3.816,1.492-3.946,2.524,2.325-.462,4.707.9,6.5,8.712.812,3.559,2.211,15.027-2.8,18.815a8.831,8.831,0,0,0,.362-1.605s-.7,2.754-4.54,2.754a4.377,4.377,0,0,0-.07,1.886s4.61-1.77,6.457-1.09c0,0-2.088,4.134-3,5.74,3,0,12.11,5.884,12.716,19.5,1.4,2.283,3.011,15.528,1.4,21.479-12.89,40.944-106.6,64.473-122.622,59.311,0,0-4.508-3.434-.761-5.51,1.241-.7.371.371,3.109,1.141,1.8.487,3.178-.032,5.364-1.241,2.4-1.341,7.264-2.464,10.649-4.858,3.357-2.415,5.93-2.96,9.514-9.693a17.309,17.309,0,0,0,1.464-5.726c.058-.515-.248-.274-3.557-1.473-1.886-.687-3.369.216-3.369-3.12a48.2,48.2,0,0,1,1.7-9.953c.38-1.281,1.573-1.462,4.942-1.281,1.448-3.1,2.68-8.6,3.582-11.616a18.9,18.9,0,0,1-3.028.174c-2.144,0-3,1.489-6.5,2.631-3.482,1.16-5.352.838-6.039-1.371-.919-2.97-.919-4.362-1.856-6.422-.677-1.5-3.016-1.357-2.554-2.97a3.9,3.9,0,0,1,2.093-2.772c1.16-1.134,3.944-.909,6.494-3.192,2.557-2.3,4.046.132,4.881,1.837a15.906,15.906,0,0,0,2.547,3.647c.812,1.051,3.707.364,5.568,0l1.624-6.635a42.929,42.929,0,0,1-11.377-3.9c-5.327-2.747-9.275-5.278-11.368-5.055-7.461.821-5.533-.571-9.048-5.972-2.079-3.2-1.624-3.417-4.181-4.577-3.3-1.5-1.148-4.823.232-4.582,1.383.223,3.726-1.151,5.809-1.605-.654-3.276.274-5.162,3.253-4.826-.705,2.06,2.315,6.429,5.807,7.563,3.485,1.151,4.858,6.883,4.858,8.027,3.26,3.225,18.374,3,21.627,3,1.661-2.6,2.25-3.292,8.6-3.292,4.021,0,7.329.977,10.333,4.485,2.83.9.5-1.689,5.359-2.234,4.849-.522,7.231-2.6,9.3-3.178s2.025-1.826,3.54-3.083c.87-.735,1.6-2.464,2.83-3.069s1.09-4.594,1.538-5.336m-40.957,73.718a27,27,0,0,0-.049,9.853c2.977-.745,5.313-3.127,7.57-4.055s8.412-2.457,12.6-4.54c0,0,.044-.786-1.457-3.021-1.107-1.647-3.522-9.763-5.891-18.458,0,0-.858-6.125-1.786-5.726-.626.255-.835,7.494-1.13,10.614-.369,3.84-.2,2.54-.2,2.54s2.417.371,2.053,1.663c-.464,1.612-2.1,10.688-2.705,12.2-.464,1.2-.689.719-2.816.271-2.622-.545-6.185-1.339-6.185-1.339ZM212.8,157.619c1.216-1.967.844-2.7,1.429-6.633a23.871,23.871,0,0,0-1.654-9.814l-8.809,2.506c2.638,3.568,5.742,10.858,9.034,13.943" transform="translate(169.243 81.023)"></path><path fill="#fff" d="M66.593,38.713c53.133,6.419,166.86,104.238,167.878,134.013l-4.06.7C217.883,128.746,97.718,41.757,66.6,42.082V38.713m166.444,142.6c.371.782,1.9,4.724,2.035,5.41.132.671,4.559,1.452,3.624-1.708a46.091,46.091,0,0,0-2.067-5.633l-3.591,1.93M407.451,385.684v.645h-1.093v2.993h-.77v-2.993H404.5v-.645h2.953m2.863,0h1.09v3.64h-.71v-2.765c0-.123.009-.225.009-.29l-.7,3.053h-.728l-.694-3.053v.29c.007.135.007.232.007.306v2.459h-.7v-3.642h1.1l.661,2.872.664-2.87" transform="translate(87.903 51.101)"></path><path fill="#fff" d="M67.13,310.247h2.661V39.49H67.13Z" transform="translate(88.612 52.127)"></path></g></svg>