<?xml version="1.0" encoding="utf-8"?>
<!-- Generator: Adobe Illustrator 16.0.0, SVG Export Plug-In . SVG Version: 6.00 Build 0)  -->
<!DOCTYPE svg PUBLIC "-//W3C//DTD SVG 1.1//EN" "http://www.w3.org/Graphics/SVG/1.1/DTD/svg11.dtd">
<svg version="1.1" id="Layer_1" xmlns="http://www.w3.org/2000/svg" xmlns:xlink="http://www.w3.org/1999/xlink" x="0px" y="0px"
	 width="1000px" height="284.165px" viewBox="0 0 1000 284.165" enable-background="new 0 0 1000 284.165" xml:space="preserve">
<g>
	<path fill="#fff" d="M222.982,209.083l-0.232,5.786c-2.693-0.155-5.375-0.178-8.079-0.178h-7.691l-0.365,9.066h7.558
		c1.773,0,3.658-0.133,6.272-0.2l-0.299,5.364h-13.82l-0.388,9.576h9.254c1.23,0,2.639,0,6.661-0.311l-0.277,5.853h-23.019
		c0.887-7.095,1.43-27.885,1.43-34.957H222.982"/>
	<path fill="#fff" d="M269.054,218.084h-0.178c-0.199,7.026-0.609,16.824-0.709,25.978h-6.595c0.898-11.615,1.308-23.273,1.497-34.955h8.645
		c4.565,9.021,9.808,17.555,14.44,26.487h0.089c0.332-8.223,0.742-17.732,0.864-26.487h6.506
		c-0.865,11.394-1.386,23.34-1.563,34.955h-8.356L269.054,218.084"/>
	<path fill="#fff" d="M357.326,209.083l-0.177,5.831c-2.959-0.2-5.818-0.223-9.83-0.223c-0.454,8.823-0.931,17.955-0.976,29.349h-7.381
		c0.665-8.712,1.064-19.374,1.386-29.349c-6.927,0-7.691,0.111-9.875,0.178l0.188-5.786H357.326"/>
	<path fill="#fff" d="M417.473,209.083l-0.222,5.786c-2.704-0.155-5.409-0.178-8.08-0.178h-7.702l-0.377,9.066h7.525
		c1.796,0,3.701-0.133,6.295-0.2l-0.276,5.364h-13.798l-0.41,9.576h9.265c1.197,0,2.626,0,6.649-0.311l-0.277,5.853h-23.029
		c0.898-7.095,1.452-27.885,1.452-34.957H417.473"/>
	<path fill="#fff" d="M481.01,244.062h-7.614c-2.239-6.605-5.286-12.944-8.079-19.351c0.953,0.156,1.884,0.333,2.837,0.333
		c3.568,0,6.993-1.796,6.993-6.25c0-4.08-3.381-4.567-6.195-4.567c-1.706,0-3.357,0.134-5.042,0.287
		c-0.134,4.522-0.698,24.295-0.766,29.548h-7.104c1.02-11.549,1.363-23.273,1.407-34.955h14.209c5.463,0,10.229,2.128,10.229,8.712
		c0,6.094-3.668,9.175-8.666,10.261L481.01,244.062"/>
	<path fill="#fff" d="M544.148,209.083l-0.201,5.831c-2.903-0.2-5.783-0.223-9.818-0.223c-0.466,8.823-0.931,17.955-0.977,29.349h-7.357
		c0.664-8.712,1.086-19.374,1.352-29.349c-6.871,0-7.691,0.111-9.853,0.178l0.21-5.786H544.148"/>
	<path fill="#fff" d="M585.707,231.87c-1.772,3.9-3.524,8.046-5.209,12.191h-7.824c5.676-11.46,11.194-23.207,16.425-34.955h8.556
		c3.546,11.659,7.537,23.406,11.438,34.955h-7.514c-1.086-4.189-2.416-8.291-3.725-12.191H585.707 M596.591,226.308l-3.679-11.682
		l-5.143,11.682H596.591z"/>
	<path fill="#fff" d="M644.689,244.062c0.643-10.529,1.285-20.946,1.285-34.955h7.403c-0.664,9.93-1.064,19.793-1.242,34.955H644.689"/>
	<path fill="#fff" d="M700.124,218.084h-0.176c-0.2,7.026-0.621,16.824-0.755,25.978h-6.583c0.909-11.615,1.329-23.273,1.507-34.955h8.667
		c4.59,9.021,9.775,17.555,14.43,26.487h0.089c0.311-8.223,0.754-17.732,0.864-26.487h6.517c-0.864,11.394-1.352,23.34-1.572,34.955
		h-8.335L700.124,218.084"/>
	<path fill="#fff" d="M784.597,244.062h-6.383l-4.5-17.889c-0.799-3.279-1.929-7.07-2.549-9.729h-0.111c-0.643,9.065-1.264,18.352-1.529,27.617
		h-6.051c1.196-10.772,2.505-32.672,2.703-34.955h9.287c0.511,3.568,1.597,6.938,2.616,10.396c1.462,5.053,2.704,10.284,3.857,15.14
		h0.089c1.596-4.855,3.279-10.087,5.23-15.095c1.329-3.414,2.639-6.805,3.568-10.44h9.509c-0.355,9.93-0.664,19.218-0.664,34.955
		h-6.296c0.287-8.202,0.665-16.513,0.665-24.781v-2.836h-0.089L784.597,244.062"/>
	<path fill="#fff" d="M863.838,209.083l-0.222,5.786c-2.682-0.155-5.364-0.178-8.091-0.178h-7.67l-0.354,9.066h7.537
		c1.771,0,3.678-0.133,6.293-0.2l-0.309,5.364h-13.832l-0.376,9.576h9.242c1.22,0,2.659,0,6.65-0.311l-0.267,5.853h-23.074
		c0.932-7.095,1.53-27.885,1.53-34.957H863.838"/>
	<path fill="#fff" d="M909.919,218.084h-0.178c-0.177,7.026-0.597,16.824-0.686,25.978h-6.604c0.862-11.615,1.306-23.273,1.483-34.955h8.645
		c4.566,9.021,9.798,17.555,14.451,26.487h0.067c0.333-8.223,0.754-17.732,0.841-26.487h6.563
		c-0.887,11.394-1.396,23.34-1.574,34.955h-8.334L909.919,218.084"/>
	<path fill="#fff" d="M998.204,209.083l-0.199,5.831c-2.882-0.2-5.785-0.223-9.797-0.223c-0.467,8.823-0.975,17.955-1.021,29.349h-7.337
		c0.643-8.712,1.107-19.374,1.374-29.349c-6.914,0-7.713,0.111-9.863,0.178l0.177-5.786H998.204"/>
	<path fill="#fff" d="M259.999,185.567h-62.728c2.97-33.138,4.122-66.297,4.532-99.589h20.969c-0.543,8.8-3.192,64.656-3.757,83.786h16.269
		c8.578,0,17.179,0,25.646-0.443L259.999,185.567"/>
	<path fill="#fff" d="M305.35,150.768c-5.109,11.061-10.053,22.964-14.906,34.776h-22.177c16.114-32.692,31.818-66.163,46.779-99.588h24.283
		c10.096,33.182,21.511,66.585,32.66,99.588h-21.467c-3.114-11.946-6.86-23.716-10.629-34.776H305.35 M336.259,134.919
		l-10.318-33.292l-14.64,33.292H336.259z"/>
	<path fill="#fff" d="M381.11,185.567c2.427-31.232,4.156-74.675,4.156-99.611h20.968c-1.585,30.61-3.357,60.776-4.012,99.611H381.11
		 M426.395,132.259c11.559,18.353,23.927,35.665,36.162,53.308h-24.604c-10.218-18.087-21.634-35.243-32.782-52.731
		c11.282-15.36,22.841-30.611,33.181-46.88h23.385L426.395,132.259z"/>
	<path fill="#fff" d="M543.571,85.956l-0.665,16.446c-7.67-0.487-15.339-0.642-22.975-0.642h-21.899l-1.075,26.021h21.501
		c5.087,0,10.439-0.465,17.864-0.598l-0.82,15.228h-39.376l-1.075,27.33h26.355c3.49,0,7.491,0,18.907-0.909l-0.799,16.712h-65.543
		c2.538-20.325,4.145-79.395,4.145-99.588H543.571"/>
	<path fill="#fff" d="M611.619,104.354c-5.94-2.438-12.236-4.389-18.707-4.389c-8.469,0-14.651,4.654-14.651,11.237
		c0,15.383,34.688,25.646,34.688,49.252c0,11.038-6.96,26.907-31.852,26.907c-8.6,0-16.955-1.817-25.246-3.9l-1.507-18.375
		c7.359,3.746,15.448,6.406,23.672,6.406c6.296,0,14.63-2.66,14.63-11.171c0-15.672-34.666-26.289-34.666-50.781
		c0-17.444,15.205-25.379,31.03-25.379c7.115,0,14.273,1.042,21.279,2.704L611.619,104.354"/>
	<path fill="#fff" d="M694.317,125.388c0.155-2.726,0.909-24.914,0.909-39.432h21.014c-1.93,33.204-3.637,66.296-3.637,99.611H691.37
		c1.086-12.523,1.772-25.092,2.149-44.331H648.9c-0.665,15.516-0.953,29.546-1.197,44.331h-20.968
		c1.906-31.055,3.902-59.714,3.902-99.611h20.968c-0.688,9.863-1.241,19.882-2.039,39.432H694.317"/>
	<path fill="#fff" d="M833.626,133.745c0,35.398-21.722,53.617-52.088,53.617c-27.131,0-49.695-15.979-49.695-48.386
		c0-35.687,22.275-54.792,53.02-54.792C812.437,84.183,833.626,101.339,833.626,133.745 M752.124,137.756
		c0,20.458,11.903,33.757,30.346,33.757c19.882,0,30.897-16.113,30.897-37.282c0-19.882-10.729-34.246-29.147-34.246
		C764.027,99.986,752.124,116.123,752.124,137.756z"/>
	<path fill="#fff" d="M918.785,185.567h-21.633c-6.473-18.974-15.028-36.883-22.964-55.081c2.639,0.443,5.364,0.887,8.068,0.887
		c10.196,0,19.816-5.098,19.816-17.777c0-11.681-9.443-12.989-17.578-12.989c-4.831,0-9.53,0.288-14.34,0.731
		c-0.443,13.011-2.04,69.288-2.218,84.229h-20.214c2.926-33.026,3.88-66.297,4.034-99.589h40.429c15.561,0,29.17,6.14,29.17,24.781
		c0,17.466-10.483,26.11-24.779,29.258L918.785,185.567"/>
	<path fill="#fff" d="M1000,85.956l-0.665,16.446c-7.626-0.487-15.294-0.642-22.985-0.642h-21.901l-1.086,26.021h21.546
		c5.099,0,10.462-0.465,17.865-0.598l-0.843,15.228h-39.365l-1.042,27.33h26.312c3.501,0,7.535,0,18.929-0.909l-0.799,16.712H930.4
		c2.55-20.325,4.167-79.395,4.167-99.588H1000"/>
	<path fill="#fff" fill-rule="evenodd" clip-rule="evenodd" d="M125.268,0.021c3.047-0.066,7.968-0.044,10.007,1.13
		c0.82,0.488,1.142,1.707,1.84,2.261c0.998,0.82,2.571,1.086,3.479,2.039c0.41,0.444,0.521,1.286,1.02,1.596
		c0.433,0.289,1.064,0.044,1.431,0.487c0.454,0.466,0.221,1.33,0.609,2.018c0.477,0.842,1.563,0.976,1.817,2.261
		c0.2,0.975-0.454,2.393-0.199,3.414c1.352,5.053-0.62,6.915-1.009,11.792c1.574,0.376,1.939,1.33,1.84,3.591
		c-1.285,1.84-1.807,5.984-3.901,6.804c-0.454,0.311-1.751,0.111-2.228,0.466c-1.219,1.419-1.086,4.788-0.632,6.805
		c0.953,0.266,1.475,0.953,2.271,1.352c3.226,1.596,6.672,3.612,9.986,4.765c3.591,1.219,8.312-1.33,12.435-0.244
		c2.549,0.688,4.998,1.974,7.148,2.727c2.072,0.753,11.082-0.222,12.855-0.665c2.971-0.177,5.984-0.311,9.011-0.466
		c3.358-0.953,6.672-2.372,9.985-3.391c3.768-1.219,7.846-0.753,11.803-1.839c4.378-1.131,12.413-1.286,15.527-3.635
		c1.374-0.998,1.928-3.192,2.837-4.744c1.308-1.44,2.582-2.881,3.879-4.322c0.721-0.753,2.338-2.526,3.469-1.995
		c0.997,1.241-0.609,2.238-1.02,3.369c0.199,0,0.41,0,0.632,0c1.474-1.574,6.716-5.453,9.154-5.675
		c0.243,0.51,0.31,0.421,0.421,1.175c-2.128,1.685-4.034,3.658-5.918,5.652c0.133,0.377,0.044,0.222,0.199,0.466
		c0.233,0.177,0.344,0.132,0.82,0.199c1.662-1.418,6.583-2.859,9.398-2.925c0.044,0.2,0.133,0.443,0.177,0.665
		c0.1,0,0.145,0,0.211,0c-0.066,0.089-0.111,0.155-0.211,0.244c-0.498,1.352-7.392,3.68-8.966,4.521c0,0.133,0,0.289,0,0.466
		c0.122,0,0.277,0,0.41,0c0.798,0.554,6.993,0,8.767,0c0.244,0.465,0.288,0.399,0.432,1.13c-0.498,0.288-0.598,0.399-1.451,0.421
		c-1.341,0.975-5.719,0.776-7.559,1.153c-0.166,0.421-0.232,0.377-0.388,0.886c0.133,0,0.266,0,0.388,0
		c1.695,1.197,5.009,0.311,6.561,1.596c0.134,0.266,0.111,0.244,0.178,0.709c-0.178,0.044-0.41,0.133-0.609,0.222
		c-1.341,0.731-5.132-0.598-6.949,0.222c-2.117,0.975-4.267,2.549-6.716,3.391c-2.051,0.443-4.09,0.931-6.106,1.375
		c-12.08,4.455-22.432,10.084-35.73,13.144c-0.588-0.111-1.197-0.155-1.817-0.222c-1.884,0.177-4.555,0-6.738,0.222
		c-6.396,0.643-13.909-0.311-19.771,1.13c-3.38,0.82-6.396-0.089-8.8,1.596c-6.86,4.766-6.649,15.871-8.943,25.823
		c-2.272,9.708-4.854,19.15-7.359,28.349c-0.477,1.729-2.472,9.398-2.039,11.105c0.199,0.82,0.997,3.347,0.997,4.078
		c0,0.333-0.388,1.131-0.199,1.817c0.477,1.641,1.695,3.458,2.261,4.965c0.499,1.375,0.366,2.727,1.009,3.901
		c0.311,0.532,0.997,1.108,1.219,1.772c0.643,1.686,0.643,3.192,1.23,4.767c1.496,3.989,2.405,4.543,2.449,10.684
		c0.632,0.421,1.906,1.219,2.25,2.016c0.854,1.576-0.599,3.148-0.211,4.966c0.255,1.175,1.142,3.347,0.599,5.253
		c-0.576,2.172-1.507,5.121-0.798,8.38c0.388,1.684,1.518,4.699,1.042,7.025c-0.344,1.352-1.274,2.838-0.843,4.987
		c0.754,3.856,0.864,8.6,1.64,12.479c0.067,1.861,0.134,3.768,0.2,5.674c0.543,2.704,1.187,5.896,0.188,8.823
		c-2.272,6.893-7.559,10.041-11.803,14.716c-0.145,1.153-0.277,2.307-0.433,3.414c0.72,3.657,2.194,7.624,3.059,11.326
		c1.707,7.093,0.565,17.666-1.407,22.896c-1.341,3.481-2.228,5.564-5.519,6.806c-0.521,0.222-1.431,1.063-2.239,0.687
		c-3.226-1.462-5.607-3.014-6.949-6.561c-1.585-4.3-1.363-12.302-0.41-17.244c0.665-3.369-0.244-10.44-0.819-13.122
		c-0.743-3.657-3.447-13.033-1.408-16.803c2.006-3.768,4.933-3.301,8.966-2.969c1.098-2.018,3.912-7.58,3.07-11.327
		c-0.731-3.147-2.161-6.405-3.07-9.486c-0.266-1.464-0.543-2.882-0.809-4.321c-0.433-1.242-1.363-2.661-1.84-3.879
		c-0.41-1.021-0.344-1.952-0.82-2.927c-0.886-1.84-3.613-1.818-4.467-3.613c-0.709-1.464-0.409-3.125-0.842-5.01
		c-0.41-1.772-1.163-3.679-1.617-5.186c-0.067-0.554-0.155-1.086-0.2-1.618c-2.405-4.987-6.605-6.34-10.828-9.266
		c-2.449-1.751-2.925-4.123-7.148-4.102c-0.11,0.334-0.133,0.378-0.199,0.932c0.654,0.82,0.454,1.906,0.81,3.17
		c0.798,2.728,1.385,6.185,2.66,8.577c0.864,1.597,2.97,2.55,3.878,4.124c0.565,0.953,0.211,2.394,0.588,3.59
		c0.166,0.399,0.687,0.776,0.842,1.152c0.366,1.043,0.133,2.062,0.609,2.949c1.009,1.839,2.272,2.814,1.641,5.452
		c0.677,1.905,2.294,2.683,2.427,5.408c-2.56,2.904-2.404,3.503-6.516,5.009c-0.699,0.267-2.561,0.865-3.469,0.2
		c-1.042-0.378-1.607-1.551-2.45-2.018c-1.097-0.621-3.956-0.797-5.087-1.152c-0.676-1.573-1.385-2.571-1.43-4.986
		c0.754-0.775,2.105-2.793,2.45-3.835c0.564-1.861-0.045-4.078-0.434-5.675c-0.065-1.218-0.132-2.393-0.177-3.635
		c-0.564-2.659-1.208-5.098-2.25-7.227c-2.039-4.167-4.443-8.577-6.129-12.922c-1.219-3.192-2.56-8.2-4.487-10.439
		c-1.619-1.906-4.411-3.06-5.298-5.676c-0.609-1.75,0.188-3.854-0.399-5.872c-0.365-1.197-1.163-1.774-0.842-3.436
		c0.089-1.574,0.133-3.147,0.222-4.766c-0.178-0.776-0.81-2.106-0.609-3.147c0.653-3.591,2.039-10.107,4.267-11.792
		c1.041-0.799,4.921-1.33,6.328-1.574c0.953-0.2,3.181,0.355,3.89,0.222c1.386-3.591,1.607-8.688,2.449-12.7c0-0.91,0-1.818,0-2.705
		c0.454-2.261,0.089-4.943,0.609-7.492c1.641-8.202,1.43-17.577,3.07-25.646c0.787-3.901-3.159-8.002-5.951-8.135
		c-2.316,1.929-6.904,3.591-9.786,4.987c-6.827,3.28-12.302,5.808-20.581,7.936c-2.526,0.066-5.064,0.155-7.558,0.244
		c-1.641,0.376-4.156,0.199-6.107,0.199c-3.745,0-7.491,0-11.237,0c-2.682,0-5.309,0-7.969,0c-3.834,1.108-6.761,3.768-10.185,5.231
		c-1.229,0.487-2.903-0.244-4.289,0.221c-0.576,0.199-1.43,0.975-2.05,1.13c-1.064,0.266-2.128-0.709-2.86-0.909
		c-2.382,0.066-4.742,0.155-7.126,0.2c-0.653-0.2-1.385-0.887-2.039-1.108c-0.819,0-1.64,0-2.449,0
		c-0.798-0.2-1.928-0.488-2.66-0.687C0.599,79.639,0.321,79.195,0,78.908c0-0.155,0-0.288,0-0.443
		c0.066-0.089,0.144-0.178,0.21-0.266c1.241,0.088,2.604,0.222,3.06-0.643c-0.267-0.333-0.267-0.399-0.411-0.887
		c0.71-0.443,1.641-0.488,2.86-0.488c0.709,0.532,7.636,0.643,9.177,0.222c4.532-1.197,8.123-3.813,12.046-5.674
		c2.184-1.02,5.453-0.953,7.536-1.773c2.639-1.064,5.087-1.308,7.747-2.305c5.631-2.017,11.593-3.791,17.566-5.408
		c2.814-0.776,6.084-0.222,8.966-0.909c0.976,0,1.906,0,2.859,0c2.626-0.821,5.286-2.727,7.758-3.879
		c3.38-1.552,7.248-2.172,10.196-4.3c2.881-2.105,5.031-4.743,8.556-6.339c5.485-2.527,12.257-0.754,18.586-2.261
		c0.343-0.799,0.543-1.086,0.586-2.283c-1.174-1.441-1.263-3.879-2.017-5.874c-0.321-0.842-1.108-1.751-1.43-2.527
		c-0.266-1.507-0.543-3.014-0.819-4.521c-0.134-0.443-0.698-1.064-0.81-1.574c-0.365-1.574,0.787-2.106,0.609-3.636
		c-0.709-5.497-0.41-11.038,2.039-14.961c0.232-0.399,3.203-4.101,3.48-4.278c0.609-0.51,1.519-0.222,2.238-0.71
		c0.554-0.687,1.076-1.352,1.641-2.039C123.25,0.73,124.248,0.398,125.268,0.021"/>
</g>
</svg>
