<svg width="299.9969987998959" height="426.4679982939629" xmlns="http://www.w3.org/2000/svg">

 <g>
  <title>background</title>
  <rect height="428.468" width="301.997" y="-1" x="-1" fill="none" id="canvas_background"/>
 </g>
 <g>
  <title>Layer 1</title>
  <polyline points="154.158,240.746 162.621,247.747 215.976,247.747 215.827,239.52 154.158,240.746" fill="#fff" id="svg_1"/>
  <polyline points="166.978,251.344 174.296,257.392 216.145,257.392 216.026,250.373 166.978,251.344" fill="#fff" id="svg_2"/>
  <polyline points="106.759,273.049 83.576,273.509 83.485,278.525 100.125,278.525 106.759,273.049" fill="#fff" id="svg_3"/>
  <polyline points="216.381,270.858 191.196,271.356 199.871,278.525 216.512,278.525 216.381,270.858" fill="#fff" id="svg_4"/>
  <polyline points="243.07,200.049 73.112,203.443 84.755,205.886 84.736,207.121 215.267,207.121 215.242,205.886 243.07,200.049" fill="#fff" id="svg_5"/>
  <polyline points="84.64,212.364 84.559,217.189 215.44,217.189 215.316,209.759 84.64,212.364" fill="#fff" id="svg_6"/>
  <polyline points="84.288,232.576 84.214,236.882 215.789,236.882 215.665,229.95 84.288,232.576" fill="#fff" id="svg_7"/>
  <polyline points="84.469,222.438 84.379,227.32 215.621,227.32 215.49,219.819 84.469,222.438" fill="#fff" id="svg_8"/>
  <polyline points="178.39,260.778 187.426,268.233 216.337,268.233 216.194,260.018 178.39,260.778" fill="#fff" id="svg_9"/>
  <polyline points="236.032,126.009 238.826,120.446 62.247,122.587 63.968,126.009 236.032,126.009" fill="#fff" id="svg_10"/>
  <polyline points="30.196,194.433 47.007,197.964 253.002,197.964 295.013,189.143 30.196,194.433" fill="#fff" id="svg_11"/>
  <polyline points="59.07,116.277 240.924,116.277 244.128,109.905 57.011,112.182 59.07,116.277" fill="#fff" id="svg_12"/>
  <polyline points="5.159,184.125 0,188.095 299.997,188.095 287.514,178.483 5.159,184.125" fill="#fff" id="svg_13"/>
  <polyline points="67.391,136.249 232.609,136.249 231.359,135.288 233.954,130.145 67.073,132.164 68.641,135.288 67.391,136.249" fill="#fff" id="svg_14"/>
  <polyline points="120.203,261.935 83.763,262.657 83.666,268.233 112.577,268.233 120.203,261.935" fill="#fff" id="svg_15"/>
  <polyline points="83.934,253.005 83.855,257.392 125.695,257.392 132.176,252.041 83.934,253.005" fill="#fff" id="svg_16"/>
  <polyline points="245.522,146.19 235.74,138.664 60.408,141.62 54.475,146.19 245.522,146.19" fill="#fff" id="svg_17"/>
  <polyline points="259.014,156.557 249.051,148.897 46.693,152.173 40.99,156.557 259.014,156.557" fill="#fff" id="svg_18"/>
  <polyline points="84.123,242.146 84.021,247.747 137.375,247.747 145.636,240.914 84.123,242.146" fill="#fff" id="svg_19"/>
  <polyline points="166.405,35.645 163.442,29.204 136.312,29.745 133.592,35.645 166.405,35.645" fill="#fff" id="svg_20"/>
  <polyline points="171.054,45.738 168.048,39.201 131.622,39.926 128.946,45.738 171.054,45.738" fill="#fff" id="svg_21"/>
  <polyline points="142.883,15.464 157.12,15.464 154.208,9.129 145.717,9.297 142.883,15.464" fill="#fff" id="svg_22"/>
  <polyline points="13.814,177.472 286.183,177.472 274.57,168.53 18.79,173.642 13.814,177.472" fill="#fff" id="svg_23"/>
  <polyline points="175.795,56.037 172.646,49.198 126.939,50.109 124.205,56.037 175.795,56.037" fill="#fff" id="svg_24"/>
  <polyline points="47.287,92.86 49.338,96.933 250.662,96.933 254.794,88.713 47.287,92.86" fill="#fff" id="svg_25"/>
  <polyline points="203.194,281.276 216.76,292.483 216.562,281.001 203.194,281.276" fill="#fff" id="svg_26"/>
  <polyline points="83.398,283.665 83.24,292.483 94.173,283.448 83.398,283.665" fill="#fff" id="svg_27"/>
  <polyline points="152.316,5.047 150.002,0 147.674,5.047 152.316,5.047" fill="#fff" id="svg_28"/>
  <polyline points="161.763,25.557 158.838,19.204 140.997,19.562 138.237,25.557 161.763,25.557" fill="#fff" id="svg_29"/>
  <polyline points="239.2,65.595 266.431,65.595 270.295,57.928 239.2,65.595" fill="#fff" id="svg_30"/>
  <polyline points="53.781,105.763 246.219,105.763 249.293,99.652 51.982,102.188 53.781,105.763" fill="#fff" id="svg_31"/>
  <polyline points="29.705,57.928 33.566,65.595 60.797,65.595 29.705,57.928" fill="#fff" id="svg_32"/>
  <polyline points="32.828,162.839 27.337,167.064 272.666,167.064 262.225,159.028 32.828,162.839" fill="#fff" id="svg_33"/>
  <polyline points="43.986,86.305 256.008,86.305 259.928,78.523 42.26,82.87 43.986,86.305" fill="#fff" id="svg_34"/>
  <polyline points="196.15,76.217 261.085,76.217 265.329,67.792 227.215,68.557 196.15,76.217" fill="#fff" id="svg_35"/>
  <polyline points="84.354,71.404 36.97,72.356 38.914,76.217 103.847,76.217 84.354,71.404" fill="#fff" id="svg_36"/>
  <polyline points="177.507,59.746 121.273,62.415 119.809,65.595 180.194,65.595 177.507,59.746" fill="#fff" id="svg_37"/>
  <polyline points="185.08,76.217 181.968,69.462 117.438,70.75 114.92,76.217 185.08,76.217" fill="#fff" id="svg_38"/>
  <path fill="#fff" d="m41.919998,333.985962c0,5.731018 -4.075996,9.640015 -9.813,9.640015c-2.668999,0 -4.905998,-1.059021 -7.447998,-1.625c-1.096001,-0.261993 -1.052,-0.609009 -1.267,-1.661011l-1.363001,-5.998993c-0.126999,-0.615997 -0.569,-1.891998 0.529001,-1.891998c0.699999,0 0.786999,0.397003 0.962,0.963989c1.399,4.213013 4.122,8.195007 8.981998,8.195007c3.416,0 6.042,-2.102997 6.042,-5.612c0,-3.722015 -2.759998,-4.294006 -9.812998,-7.399017c-3.765001,-1.66098 -6.347,-3.372986 -6.347,-8.020996c0,-5.039978 3.5,-8.710999 8.627998,-8.710999c3.594,0 5.430002,1.705017 6.747999,1.705017c0.566002,0 1.665001,-0.697021 2.231003,-0.697021c0.655998,0 0.528,0.653015 0.608997,1.662018l0.485001,5.872986c0.091,1.002014 -0.042999,1.525024 -1.004997,1.525024c-1.008003,0 -1.664001,-8.184021 -9.203001,-8.184021c-2.894001,0 -4.860001,1.662018 -4.860001,4.593018c0,2.980988 2.407999,3.553986 8.282,6.135986c4.684002,2.05899 7.620998,3.944 7.620998,9.507996" id="svg_39"/>
  <path fill="#fff" d="m61.502998,311.863983c-10.469997,0.086975 -16.299999,7.311981 -16.299999,16.950989c0,8.893005 5.914001,14.811005 14.720001,14.811005c14.02,0 16.696003,-10.735016 16.696003,-16.871002c0,-9.32901 -6.531006,-14.979004 -15.116005,-14.890991m-0.304996,29.875c-7.847,0.130981 -10.604,-9.022003 -10.604,-15.420013c0,-6.395996 2.189999,-12.445007 9.595997,-12.570007c5.646999,-0.092987 11.035999,4.984009 11.035999,14.71701c0.000999,7.268982 -2.451996,13.141998 -10.027996,13.27301z" id="svg_40"/>
  <path fill="#fff" d="m113.374001,312.82196c0,1.188019 -3.073997,-0.391998 -3.073997,4.556l0,9.949005c0,8.893005 -2.489006,16.299011 -14.630005,16.299011c-8.186996,0 -12.57,-3.815002 -12.57,-12.309998l0,-14.331024c0,-3.764984 -4.557999,-2.36499 -4.557999,-4.02597c0,-0.572021 0.569,-0.703003 0.924004,-0.703003c0.565994,0 3.853996,0.174988 6.042,0.174988c2.237,0 5.345993,-0.174988 6.18,-0.174988c0.394997,0 0.478996,0.353973 0.478996,0.615997c0,1.487 -3.677002,-0.834015 -3.677002,6.347992l0,9.558014c0,6.695984 1.750999,12.258972 9.589005,12.258972c8.762001,0 9.903,-6.919983 9.903,-14.323975l0,-8.719025c0,-5.033997 -5.386002,-3.677979 -5.386002,-5.251984c0,-0.703003 0.740997,-0.485016 1.312996,-0.485016c1.270004,0.081024 2.455002,0.175018 3.678001,0.175018c1.445999,0 2.803001,-0.093994 4.997002,-0.175018c0.528,-0.001984 0.790001,0.07901 0.790001,0.565002" id="svg_41"/>
  <path fill="#fff" d="m145.266006,317.338959c0.080994,0.522003 0.565994,2.234009 -0.572006,2.234009c-1.748993,0 -0.345993,-4.860016 -5.386002,-4.692017l-3.770996,0c-1.791992,0 -2.229996,0.225006 -2.229996,2.328003l0,19.843994c0,5.389008 5.649994,4.113007 5.649994,5.339996c0,1.058014 -0.877991,0.920013 -2.145996,0.920013c-3.593994,0 -8.806,0 -12.312996,0c-0.790001,0 -1.534004,0.050995 -1.534004,-0.920013c0,-1.704987 4.950005,0.39801 4.950005,-4.815979l0,-20.367004c0,-2.104004 -0.431999,-2.328003 -2.230003,-2.328003l-3.681,0c-4.952995,0 -3.634003,5.743988 -5.610001,5.743988c-0.917999,0 -0.655998,-0.964996 -0.565002,-1.536987l0.699005,-5.781006c0.046997,-0.436005 0.046997,-1.052002 0.702995,-1.052002c4.070007,0 7.008003,0.175018 13.401009,0.175018c6.440002,0 9.377991,-0.175018 13.449997,-0.175018c0.656998,0 0.656998,0.615997 0.699997,1.052002l0.485001,4.031006" id="svg_42"/>
  <path fill="#fff" d="m182.677994,342.791962c0,0.571991 -0.354004,0.520996 -0.914993,0.520996c-2.726013,0 -6.584,0 -11.351013,0c-0.608994,0 -0.870987,-0.174011 -0.870987,-0.472992c0,-1.542999 3.186996,-0.354004 3.186996,-4.604004l0,-7.890991c0,-1.82901 0.136993,-2.315002 -1.792007,-2.315002l-11.735992,0c-2.016998,0 -2.153,0.436005 -2.153,2.36499l0,6.882996c0,5.425995 5.438004,3.85202 5.438004,5.425995c0,0.262024 0.080994,0.609009 -1.319,0.609009c-2.844009,0 -6.310013,0 -12.271011,0c-0.521988,0 -0.957993,-0.085999 -0.957993,-0.658997c0,-1.748993 3.722,-0.167999 3.722,-5.601013l0,-19.582977c0,-4.772003 -4.94101,-2.851013 -4.94101,-4.511993c0,-0.658997 1.307007,-0.703003 2.141006,-0.703003c1.319,0 2.626007,0.174988 4.910004,0.174988c2.625992,0 4.373993,-0.174988 5.643997,-0.174988c0.623001,0 1.009003,0.217987 1.009003,0.652985c0,1.363007 -3.373001,0.094025 -3.373001,3.995026l0,7.006989c0,1.182983 0.181,1.755005 1.095001,1.755005l13.056,0c1.270004,0 1.530991,-1.015015 1.530991,-1.979004l0,-6.21701c0,-4.822998 -4.860001,-3.242004 -4.860001,-4.511993c0,-0.790009 0.393005,-0.703003 1.052002,-0.703003c1.799011,0 2.938004,0.175018 5.650009,0.175018c2.283997,0 3.901001,-0.175018 5.787003,-0.175018c0.746994,0 0.92099,0.131012 0.92099,0.522003c0,1.674011 -3.160995,-0.21701 -3.160995,4.075989l0,20.287018c-0.003998,5.565002 4.557999,3.946991 4.557999,5.652985" id="svg_43"/>
  <path fill="#fff" d="m208.744995,336.306976c0,3.410004 -2.589005,7.006012 -6.223007,7.006012c-10.778,0 -10.778,0 -17.087997,0c-0.565994,0 -0.827988,-0.210999 -0.827988,-0.473022c0,-2.020996 3.328995,0.348999 3.328995,-5.002991l0,-20.546997c0,-3.933014 -4.953003,-2.539001 -4.953003,-4.286987c0,-0.393005 0.348999,-0.747009 0.958008,-0.747009c1.804993,0 4.953995,0.174988 11.661987,0.174988c3.105011,0 6.136002,-0.174988 10.031006,-0.174988c0.572006,0 0.871002,0.441986 0.871002,0.826996l0.173996,4.343994c0.050003,0.56601 0.268005,2.01001 -0.733002,2.01001c-2.104004,0 1.356003,-5.121002 -7.144989,-5.121002c-5.302002,0 -5.476013,0.044006 -5.476013,3.062988l0,6.186005c0,1.878998 0,2.18399 1.879013,2.18399l2.763,0c3.770996,0 3.895996,-4.02597 4.778992,-4.02597c0.298996,0 0.783997,-0.087006 0.820999,1.094971l0.311996,7.791016c0.044006,0.572998 0.312012,2.153992 -0.73999,2.153992c-1.400009,0 -0.181,-4.643005 -4.736008,-4.643005l-3.240997,0c-2.016998,0 -1.835999,0.522003 -1.835999,3.062012l0,5.612c0,2.713989 -0.181,4.295013 2.974991,4.295013c10.908005,0 10.299011,-5.744019 11.960007,-5.744019c0.180008,-0.002991 0.485001,0.127991 0.485001,0.962006" id="svg_44"/>
  <path fill="#fff" d="m240.195007,340.382965c-0.436005,0 -0.876999,0.260986 -1.307007,0.260986c-0.353989,0 -1.187988,0 -1.580994,-0.702972c-3.160995,-5.514008 -6.919998,-11.867004 -6.919998,-12.13501c0,-0.436005 1.270004,-0.833008 2.576996,-1.834991c1.275009,-1.053009 2.544998,-2.676025 2.544998,-5.526001c0,-2.011017 -0.877991,-8.189026 -10.516998,-8.189026c-2.931992,0 -5.912003,0.175018 -8.843002,0.175018c-2.763,0 -3.117996,-0.175018 -5.127991,-0.175018c-0.522003,0 -0.964005,0.218018 -0.964005,0.653015c0,1.579987 4.772003,-0.036987 4.772003,4.865997l0,19.321991c0,5.52002 -3.546997,4.069 -3.546997,5.470001c0,0.884003 0.92099,0.746002 1.399994,0.746002c2.190002,0 4.386993,-0.173981 6.744995,-0.173981c1.84201,0 3.029999,0.173981 3.764999,0.173981c1.009003,0 1.356003,-0.260986 1.356003,-0.658997c0,-1.566986 -4.330994,0.223999 -4.330994,-4.462006l0,-7.585999c0,-1.529999 -0.261002,-1.828979 2.060989,-1.828979c2.190002,0 2.974014,0.391998 3.988007,2.315002l3.677994,6.919983c1.356003,2.545013 2.807007,5.300995 6.267014,5.300995c1.747986,0 4.64299,-0.957001 4.64299,-2.313995c0.000992,-0.35498 -0.26001,-0.615997 -0.658997,-0.615997m-17.03801,-13.628998c-1.319,0 -2.938004,0 -2.938004,-1.088989l0,-8.89801c0,-2.631989 1.356003,-2.631989 2.975006,-2.631989c4.431,0 6.882996,3.241974 6.882996,7.584991c0,2.576996 -0.261993,5.033997 -6.919998,5.033997z" id="svg_45"/>
  <path fill="#fff" d="m276.431,312.82196c0,1.312988 -3.727997,0.260986 -3.727997,4.865997l0,24.617004c0,0.964996 0,1.320007 -0.522003,1.320007c-0.622009,0 -0.834015,-0.261993 -1.144989,-0.617004l-20.723007,-22.43399l-0.391998,-0.391998c-0.305008,-0.34903 -0.56601,-0.565002 -0.790009,-0.565002c-0.261993,0 -0.348999,0.304993 -0.348999,0.695984l0,14.940002c0,8.40799 5.606003,5.43399 5.606003,7.493011c0,0.615997 -1.095001,0.565002 -1.660995,0.565002c-2.153,0 -3.641006,-0.174011 -5.172012,-0.174011c-1.398987,0 -2.581985,0.174011 -3.770996,0.174011c-0.479004,0 -1.356003,0.224976 -1.356003,-0.521027c0,-1.755981 4.200012,-0.970978 4.200012,-5.43399l0,-16.688995c0,-8.412994 -4.903,-5.562988 -4.903,-7.665985c0,-0.393005 0.223999,-0.747009 0.745987,-0.747009c0.834,0 1.624008,0.174988 2.452011,0.174988c1.144989,0 2.283997,-0.174988 4.603989,-0.174988c1.400009,0 0.878006,0.306 1.668015,1.139008l17.64798,19.365997c0.572021,0.61499 1.095001,1.131989 1.356018,1.131989c0.260986,0 0.354004,-0.516998 0.354004,-1.618011l0,-14.622986c0,-3.994995 -5.346008,-3.199005 -5.346008,-4.64801c0,-0.304993 0.131012,-0.746979 0.696991,-0.746979c0.703003,0 1.979004,0.174988 4.997009,0.174988c2.756989,0 4.299988,-0.174988 4.69101,-0.174988c0.838989,0 0.838989,0.442993 0.838989,0.566986" id="svg_46"/>
  <path fill="#fff" d="m52.900002,389.69928c0,8.644012 -6.811001,14.511993 -16.416,14.511993c-4.465,0 -8.205,-1.579987 -12.455,-2.438995c-1.829,-0.39801 -1.755001,-0.92099 -2.122,-2.501007l-2.278,-9.03598c-0.215,-0.928009 -0.949001,-2.838013 0.879999,-2.838013c1.173,0 1.319,0.59201 1.612,1.450012c2.346001,6.328979 6.889,12.326996 15.025,12.326996c5.716,0 10.115002,-3.161011 10.115002,-8.438019c0,-5.606995 -4.621002,-6.458984 -16.416002,-11.145996c-6.303999,-2.507996 -10.629,-5.076996 -10.629,-12.065002c0,-7.585999 5.862,-13.130981 14.439999,-13.130981c6.008003,0 9.085003,2.575989 11.285004,2.575989c0.948997,0 2.783997,-1.050995 3.732998,-1.050995c1.102001,0 0.877998,0.988007 1.027,2.501007l0.808998,8.842987c0.146,1.511993 -0.077999,2.303009 -1.688999,2.303009c-1.683998,0 -2.785,-12.334015 -15.389999,-12.334015c-4.835001,0 -8.130001,2.508026 -8.130001,6.926025c0,4.485992 4.026001,5.345978 13.846001,9.228973c7.846001,3.105011 12.753002,5.943024 12.753002,14.312012" id="svg_47"/>
  <path fill="#fff" d="m129.550003,364.640289c0.149002,0.789001 0.959,3.36499 -0.947998,3.36499c-2.931999,0 -0.585007,-7.324005 -9.018005,-7.056976l-6.300995,0c-3.001999,0 -3.733002,0.323975 -3.733002,3.497986l0,29.876007c0,8.108002 9.448997,6.196991 9.448997,8.039978c0,1.586029 -1.464996,1.387024 -3.586998,1.387024c-6.008995,0 -14.732002,0 -20.595001,0c-1.319,0 -2.562996,0.062988 -2.562996,-1.387024c0,-2.569977 8.278999,0.604004 8.278999,-7.25l0,-30.665985c0,-3.174011 -0.734001,-3.497986 -3.733002,-3.497986l-6.157997,0c-8.281998,0 -6.083,8.63797 -9.377998,8.63797c-1.543007,0 -1.104004,-1.449982 -0.958,-2.30899l1.172997,-8.705994c0.078003,-0.652008 0.078003,-1.579987 1.172997,-1.579987c6.820007,0 11.725006,0.261993 22.425003,0.261993c10.774002,0 15.681,-0.261993 22.500999,-0.261993c1.095993,0 1.095993,0.927979 1.169998,1.579987l0.802002,6.069" id="svg_48"/>
  <path fill="#fff" d="m196.598999,398.473297l-3.292007,-6.65799l-16.559998,-33.770996c-0.957993,-1.973022 -1.106995,-2.110016 -1.761002,-2.110016c-0.957993,0 -1.319,1.257996 -1.835999,2.30899l-3.147995,6.205017l-16.709,33.764984c-1.835007,3.696014 -5.569,3.299011 -5.569,4.81601c0,0.852997 1.169998,0.721985 2.203003,0.721985c4.393997,0 8.787003,0 13.328995,0c1.544006,0 3.815002,0.461029 3.815002,-0.92099c0,-1.785004 -7.916,-0.727997 -7.916,-5.475983c0,-1.581024 1.026001,-3.896027 1.537003,-5.215027c1.692001,-4.349976 3.223999,-4.610992 4.475006,-4.610992l14.431,0c1.903992,0 2.276993,0.660004 4.766998,5.800018c0.802994,1.78598 1.319,2.968994 1.319,4.424988c0,4.019989 -5.277008,3.291992 -5.277008,5.214996c0,0.914001 0.951996,0.78302 2.270996,0.78302c5.49501,0 13.187012,0 17.586014,0c1.983994,0 2.638992,0.130981 2.638992,-0.982025c-0.001007,-2.181 -3.959,0.389984 -6.304001,-4.29599m-19.266998,-14.505005l-9.968994,0c-1.319,0 -2.340012,0.062012 -2.340012,-0.59201c0,-0.927979 0.436005,-1.654999 0.797012,-2.438995l5.649994,-11.747986c0.360001,-0.723022 0.653,-0.791016 0.796005,-0.791016c0.373993,0 0.149002,0 0.591995,0.529022l6.005005,12.009979c0.373001,0.783997 0.80899,1.511993 0.80899,2.438995c0,0.653992 -1.020996,0.59201 -2.339996,0.59201z" id="svg_49"/>
  <path fill="#fff" d="m276.697998,399.33197c-0.734009,0 -1.468994,0.39801 -2.201996,0.39801c-0.584991,0 -1.979004,0 -2.639008,-1.058014c-5.270996,-8.307983 -11.574982,-17.872009 -11.574982,-18.270996c0,-0.660004 2.121979,-1.256989 4.319,-2.769989c2.127991,-1.580017 4.255981,-4.02002 4.255981,-8.307007c0,-3.037018 -1.467987,-12.334015 -17.591995,-12.334015c-4.908997,0 -9.888,0.262024 -14.804001,0.262024c-4.610992,0 -5.195999,-0.262024 -8.569,-0.262024c-0.876999,0 -1.610992,0.335999 -1.610992,0.989014c0,2.376984 7.983002,-0.062012 7.983002,7.324005l0,29.078979c0,8.308014 -5.930008,6.136017 -5.930008,8.246002c0,1.318024 1.529999,1.119019 2.339996,1.119019c3.671005,0 7.324005,-0.261017 11.28801,-0.261017c3.07399,0 5.052994,0.261017 6.304001,0.261017c1.679993,0 2.270996,-0.391998 2.270996,-0.981995c0,-2.377014 -7.255997,0.322998 -7.255997,-6.733002l0,-11.413025c0,-2.302979 -0.436005,-2.763 3.440994,-2.763c3.664993,0 4.983994,0.591003 6.669998,3.490997l6.154999,10.423004c2.270996,3.826996 4.69101,7.977997 10.479004,7.977997c2.932007,0 7.766998,-1.448975 7.766998,-3.496979c0.001007,-0.520996 -0.434998,-0.919006 -1.095001,-0.919006m-28.511993,-20.51001c-2.190002,0 -4.903,0 -4.903,-1.648987l0,-13.386017c0,-3.957001 2.264999,-3.957001 4.983994,-3.957001c7.397995,0 11.5,4.879028 11.5,11.406006c0,3.889008 -0.442993,7.585999 -11.580994,7.585999z" id="svg_50"/>
  <line y2="422.967" x2="278.864" y1="422.967" x1="17.958" stroke-width="9" stroke="#999999" fill="#fff" id="svg_51"/>
 </g>
</svg>